HIERARCHY
ROOT Hips
{
  OFFSET 37.7089 104.185 330.688
  CHANNELS 6 Xposition Yposition Zposition Zrotation Xrotation Yrotation
  JOINT RightUpLeg
  {
    OFFSET -8.9458 -8.66707 0.101652
    CHANNELS 3 Zrotation Xrotation Yrotation
    JOINT RightLeg
    {
      OFFSET 0 -44.4227 1.3727
      CHANNELS 3 Zrotation Xrotation Yrotation
      JOINT RightFoot
      {
        OFFSET 0.253549 -42.0924 -1.46059
        CHANNELS 3 Zrotation Xrotation Yrotation
        JOINT RightToes
        {
          OFFSET 0.04 -4.41509 8.4991
          CHANNELS 3 Zrotation Xrotation Yrotation
          End Site
          {
            OFFSET -0.08 -0.137448 9.77979
          }
        }
      }
    }
  }
  JOINT Spine
  {
    OFFSET 0 11.8905 0
    CHANNELS 3 Zrotation Xrotation Yrotation
    JOINT Spine1
    {
      OFFSET 0 25.6574 0.127663
      CHANNELS 3 Zrotation Xrotation Yrotation
      JOINT HEad
      {
        OFFSET 0 8.73416 0.011341
        CHANNELS 3 Zrotation Xrotation Yrotation
        End Site
        {
          OFFSET -0.29 12.7742 2.51395
        }
      }
      JOINT LeftShoulder1
      {
        OFFSET 8.99 -0.362252 -0.22
        CHANNELS 3 Zrotation Xrotation Yrotation
        JOINT LeftArm
        {
          OFFSET 10.2827 -0.00338 0.322123
          CHANNELS 3 Zrotation Xrotation Yrotation
          JOINT LeftForeArm
          {
            OFFSET 32.7669 0.099144 -1.42434
            CHANNELS 3 Zrotation Xrotation Yrotation
            JOINT LeftHand
            {
              OFFSET 27.5643 0.085362 1.02216
              CHANNELS 3 Zrotation Xrotation Yrotation
              End Site
              {
                OFFSET 16.7443 -0.6 1.50291
              }
            }
          }
        }
      }
      JOINT RightShoulder
      {
        OFFSET -8.99 -0.362252 -0.22
        CHANNELS 3 Zrotation Xrotation Yrotation
        JOINT RightArm
        {
          OFFSET -10.2827 -0.00338 0.322123
          CHANNELS 3 Zrotation Xrotation Yrotation
          JOINT RightForeArm
          {
            OFFSET -32.8971 0.099144 -1.42434
            CHANNELS 3 Zrotation Xrotation Yrotation
            JOINT RightHand
            {
              OFFSET -27.4921 0.085362 1.02216
              CHANNELS 3 Zrotation Xrotation Yrotation
              End Site
              {
                OFFSET -16.6312 -0.6 1.50291
              }
            }
          }
        }
      }
    }
  }
  JOINT LeftUpLeg
  {
    OFFSET 8.9458 -8.66707 0.101652
    CHANNELS 3 Zrotation Xrotation Yrotation
    JOINT LeftLeg
    {
      OFFSET 0 -44.4227 1.3727
      CHANNELS 3 Zrotation Xrotation Yrotation
      JOINT LeftFoot
      {
        OFFSET -0.253549 -42.0924 -1.46059
        CHANNELS 3 Zrotation Xrotation Yrotation
        JOINT LeftToes
        {
          OFFSET -0.04 -4.41509 8.4991
          CHANNELS 3 Zrotation Xrotation Yrotation
          End Site
          {
            OFFSET 0.08 -0.047448 9.77979
          }
        }
      }
    }
  }
}
MOTION
Frames:	11
Frame Time:	0.0166667
33.0903	104.317	-202.839	-7.71975	-1.91488	175.426	-4.64694	-11.1975	-2.53508	10.4863	27.4791	-23.8608	6.8502	-11.7984	-28.1173	0.0462048	0.000533964	0.662642	0.808446	-3.10676	-0.419862	1.59754	-6.2163	-0.797774	5.13022	34.3761	-4.88054	-2.98E-16	0	0	-61.6946	10.7243	2.52366	-4.18863	36.5022	-21.8423	-9.23616	7.05526	6.43812	-2.98E-16	0	0	58.6596	26.7297	21.5348	0.990998	-12.6007	54.7692	0.716962	8.32465	2.56579	-7.38691	-39.2824	0.513797	16.2885	60.3072	-20.7307	-22.8683	-6.31445	-17.4013	9.54E-15	3.18E-14	3.18E-15
33.7269	104.367	-204.312	-7.38397	-1.50773	174.768	-3.93442	-9.45168	-1.62408	10.6191	26.6365	-23.9136	6.88139	-11.8806	-27.9962	0.0462048	0.000533964	0.662642	0.754703	-3.10716	-0.25794	1.49865	-6.21465	-0.476151	5.90988	34.2149	-6.16199	9.94E-17	0	7.95E-16	-62.2469	8.61787	5.11832	-5.42798	35.1356	-16.0304	-9.05239	6.55111	7.15507	9.94E-17	0	7.95E-16	57.9387	26.3362	22.426	1.2674	-14.0858	56.6567	0.700333	8.02207	2.42299	-7.8162	-39.4246	-0.558164	15.0443	56.1999	-19.9376	-23.417	-8.32528	-10.7748	1.19E-14	3.50E-14	9.54E-15
34.399	104.403	-205.778	-7.03623	-1.09461	174.028	-3.171	-7.69879	-1.02947	10.4948	25.8015	-23.4928	6.8001	-11.8511	-28.0472	0.0462048	0.000533964	0.662642	0.71434	-3.10154	-0.0933674	1.42672	-6.20122	-0.14856	6.51411	34.0676	-7.23978	-2.58E-15	0	7.95E-16	-62.1988	6.64249	7.55484	-6.27636	33.6801	-11.1349	-9.9228	5.88164	8.23754	-2.58E-15	0	7.95E-16	57.3005	25.7298	23.0014	1.91224	-15.4857	58.6322	0.931316	7.648	2.34261	-8.03467	-39.1303	-1.72204	13.3695	51.6817	-18.513	-22.3976	-9.57574	-6.1776	1.43E-14	3.02E-14	3.18E-15
35.1212	104.422	-207.248	-6.69599	-0.578707	173.286	-2.40493	-5.75471	-0.84302	10.1077	24.9446	-22.5667	6.69303	-11.8091	-28.0912	0.0462048	0.000533964	0.662642	0.677558	-3.06431	0.0418297	1.36025	-6.12513	0.11997	6.96115	33.9866	-8.08689	5.96E-16	0	-1.59E-15	-61.6207	4.97889	9.89368	-6.85367	32.1028	-7.18997	-11.7518	5.81303	9.5067	5.96E-16	0	-1.59E-15	56.6963	24.9675	23.2855	3.0843	-16.9012	60.7377	1.44271	7.43854	2.29084	-8.12373	-38.3348	-3.09783	11.4688	46.7761	-16.824	-20.4303	-10.2457	-3.11571	1.35E-14	3.02E-14	1.27E-14
35.8981	104.424	-208.731	-6.38378	0.00466032	172.577	-1.67585	-3.63415	-0.991617	9.58514	23.9646	-21.4594	6.52141	-11.7014	-28.0929	0.0462048	0.000533964	0.662642	0.643178	-3.02179	0.15014	1.29697	-6.03892	0.334701	7.28831	33.9881	-8.79691	-1.99E-16	0	-2.39E-15	-60.7034	3.60888	12.2047	-7.23575	30.6506	-4.02876	-13.8656	6.26224	10.5227	-1.99E-16	0	-2.39E-15	56.2521	23.9321	23.2074	4.81722	-18.1666	62.9796	2.10387	7.25477	2.19055	-8.1881	-37.0287	-4.55922	9.66443	41.3219	-15.497	-17.7836	-10.609	-0.773907	1.17E-14	3.05E-14	3.18E-15
36.7397	104.401	-210.237	-6.08541	0.607363	171.912	-0.926853	-1.38755	-1.23465	8.9869	22.8275	-20.4146	6.32429	-11.5348	-28.0961	0.0462048	0.000533964	0.662642	0.613798	-2.97009	0.2249	1.24175	-5.93479	0.482382	7.50584	34.022	-9.3381	0	0	7.95E-16	-59.5715	2.43337	14.5887	-7.44858	29.672	-1.76888	-15.7459	6.70948	11.2922	0	0	7.95E-16	55.9662	22.671	22.8765	7.17562	-19.2796	65.365	2.79481	6.94634	1.8898	-8.15942	-35.3372	-6.07625	7.9155	35.4668	-14.8354	-14.6657	-10.7567	0.569455	1.43E-14	3.18E-14	0
37.6438	104.336	-211.766	-5.79125	1.16954	171.33	-0.157353	0.870107	-1.41842	8.43066	21.626	-19.4642	6.07747	-11.3563	-28.2072	0.0462048	0.000533964	0.662642	0.5793	-2.92099	0.274769	1.17489	-5.83624	0.579985	7.68967	34.0082	-9.74582	-1.59E-15	-3.18E-15	-1.59E-15	-58.3135	1.58844	17.0359	-7.61321	29.2787	-0.507038	-17.4276	6.81667	12.0438	-1.59E-15	-3.18E-15	-1.59E-15	55.6997	21.3518	22.3472	10.2253	-20.4478	67.9226	3.53773	6.39146	1.40233	-7.97119	-33.5017	-7.33604	6.40925	29.668	-15.8226	-13.2393	-10.7395	-5.71531	1.27E-14	3.02E-14	0
38.5546	104.229	-213.307	-5.48229	1.58377	170.877	0.583017	2.95671	-1.3057	8.12076	20.4339	-18.924	5.85122	-11.1304	-28.3186	0.0462048	0.000533964	0.662642	0.540479	-2.89568	0.299731	1.09821	-5.78558	0.627759	7.89843	33.8405	-10.077	-5.96E-16	-3.18E-15	0	-57.062	1.17619	19.5035	-7.76892	29.2167	-0.280575	-19.048	6.89306	12.8649	-5.96E-16	-3.18E-15	0	55.4034	20.0114	21.5861	13.7745	-21.6245	70.6151	4.23715	5.60307	0.971464	-7.55419	-31.5721	-7.70014	5.89756	24.1235	-17.9985	-14.5725	-11.269	-15.576	1.59E-14	2.86E-14	6.36E-15
39.4444	104.066	-214.858	-5.14854	1.94618	170.463	1.26313	4.9226	-0.556628	8.1484	19.3191	-19.1563	5.67888	-10.9126	-28.3601	0.0462048	0.000533964	0.662642	0.493109	-2.87783	0.315905	1.00398	-5.75	0.657598	8.15214	33.5614	-10.3307	3.98E-16	0	1.59E-15	-55.7843	1.0445	21.9718	-7.8615	29.1771	-0.779561	-20.3273	7.15298	13.154	3.98E-16	0	1.59E-15	55.1517	18.5491	20.496	17.6444	-22.6094	73.4081	5.04423	4.79984	0.63556	-6.69582	-29.688	-6.94164	5.44901	19.4078	-20.2512	-15.592	-12.5699	-20.8536	1.59E-14	3.82E-14	6.36E-15
40.3437	103.842	-216.387	-4.80117	2.40303	169.892	1.90399	6.80022	0.64758	8.29483	18.5095	-19.8518	5.55899	-10.7504	-28.3686	0.0462048	0.000533964	0.662642	0.439302	-2.85682	0.344147	0.897438	-5.70808	0.711298	8.37965	33.2629	-10.4339	-3.18E-15	0	1.59E-15	-54.5157	1.2491	24.3725	-7.91872	28.7576	-1.64634	-21.1346	7.21177	12.6945	-3.18E-15	0	1.59E-15	54.9154	17.2261	19.109	21.4295	-23.4509	76.1166	6.07172	3.97283	0.515969	-5.59439	-28.0025	-5.72353	4.62451	15.8712	-21.2041	-16.02	-13.5293	-24.1976	1.75E-14	3.26E-14	6.36E-15
41.2267	103.548	-217.946	-4.48483	2.89028	169.2	2.32208	8.49761	1.57686	8.56054	18.2151	-20.2304	5.50385	-10.7196	-28.2788	0.0462048	0.000533964	0.662642	0.391827	-2.81954	0.397826	0.804696	-5.63345	0.816185	8.5619	32.8637	-10.5319	3.98E-16	-3.18E-15	1.59E-15	-53.3216	1.76747	26.4387	-8.01016	27.8548	-2.64469	-21.4997	6.90945	11.9212	3.98E-16	-3.18E-15	1.59E-15	54.6423	16.0769	17.5771	24.8765	-24.289	78.6225	7.00294	3.24366	0.648134	-5.00992	-26.6132	-5.03939	4.1521	14.0855	-21.3837	-16.221	-14.7234	-26.1512	1.59E-14	3.50E-14	9.54E-15
